<mxfile host="app.diagrams.net" modified="2024-01-30T13:49:39.370Z" agent="Mozilla/5.0 (Windows NT 10.0; Win64; x64) AppleWebKit/537.36 (KHTML, like Gecko) Chrome/120.0.0.0 Safari/537.36" etag="qjU_4P1lKRS-bi7akI2G" version="23.0.2" type="device">
  <diagram id="R2lEEEUBdFMjLlhIrx00" name="Page-1">
    <mxGraphModel dx="989" dy="495" grid="1" gridSize="10" guides="1" tooltips="1" connect="1" arrows="1" fold="1" page="1" pageScale="1" pageWidth="850" pageHeight="1100" math="0" shadow="0" extFonts="Permanent Marker^https://fonts.googleapis.com/css?family=Permanent+Marker">
      <root>
        <mxCell id="0" />
        <mxCell id="1" parent="0" />
        <mxCell id="7i4j4CuEcmihDpo4w7E3-4" style="edgeStyle=orthogonalEdgeStyle;rounded=0;orthogonalLoop=1;jettySize=auto;html=1;exitX=0;exitY=0.75;exitDx=0;exitDy=0;" edge="1" parent="1" source="7i4j4CuEcmihDpo4w7E3-1" target="7i4j4CuEcmihDpo4w7E3-2">
          <mxGeometry relative="1" as="geometry" />
        </mxCell>
        <mxCell id="7i4j4CuEcmihDpo4w7E3-5" style="edgeStyle=orthogonalEdgeStyle;rounded=0;orthogonalLoop=1;jettySize=auto;html=1;exitX=0.25;exitY=1;exitDx=0;exitDy=0;" edge="1" parent="1" source="7i4j4CuEcmihDpo4w7E3-1" target="7i4j4CuEcmihDpo4w7E3-3">
          <mxGeometry relative="1" as="geometry" />
        </mxCell>
        <mxCell id="7i4j4CuEcmihDpo4w7E3-12" style="edgeStyle=orthogonalEdgeStyle;rounded=0;orthogonalLoop=1;jettySize=auto;html=1;exitX=1;exitY=0.5;exitDx=0;exitDy=0;entryX=0.5;entryY=0;entryDx=0;entryDy=0;" edge="1" parent="1" source="7i4j4CuEcmihDpo4w7E3-1" target="7i4j4CuEcmihDpo4w7E3-6">
          <mxGeometry relative="1" as="geometry" />
        </mxCell>
        <mxCell id="7i4j4CuEcmihDpo4w7E3-1" value="Proyectos" style="rounded=0;whiteSpace=wrap;html=1;" vertex="1" parent="1">
          <mxGeometry x="230" y="110" width="120" height="60" as="geometry" />
        </mxCell>
        <mxCell id="7i4j4CuEcmihDpo4w7E3-2" value="ID_Proyecto" style="ellipse;whiteSpace=wrap;html=1;" vertex="1" parent="1">
          <mxGeometry x="50" y="210" width="90" height="60" as="geometry" />
        </mxCell>
        <mxCell id="7i4j4CuEcmihDpo4w7E3-3" value="Nombre_proyecto" style="ellipse;whiteSpace=wrap;html=1;" vertex="1" parent="1">
          <mxGeometry x="160" y="280" width="100" height="70" as="geometry" />
        </mxCell>
        <mxCell id="7i4j4CuEcmihDpo4w7E3-6" value="Empresa" style="rounded=0;whiteSpace=wrap;html=1;" vertex="1" parent="1">
          <mxGeometry x="470" y="310" width="120" height="60" as="geometry" />
        </mxCell>
        <mxCell id="7i4j4CuEcmihDpo4w7E3-13" style="edgeStyle=orthogonalEdgeStyle;rounded=0;orthogonalLoop=1;jettySize=auto;html=1;exitX=1;exitY=1;exitDx=0;exitDy=0;entryX=0;entryY=0.5;entryDx=0;entryDy=0;" edge="1" parent="1" source="7i4j4CuEcmihDpo4w7E3-8" target="7i4j4CuEcmihDpo4w7E3-6">
          <mxGeometry relative="1" as="geometry" />
        </mxCell>
        <mxCell id="7i4j4CuEcmihDpo4w7E3-8" value="ID_Empleado" style="ellipse;whiteSpace=wrap;html=1;" vertex="1" parent="1">
          <mxGeometry x="310" y="330" width="100" height="70" as="geometry" />
        </mxCell>
        <mxCell id="7i4j4CuEcmihDpo4w7E3-14" style="edgeStyle=orthogonalEdgeStyle;rounded=0;orthogonalLoop=1;jettySize=auto;html=1;exitX=1;exitY=0;exitDx=0;exitDy=0;entryX=0;entryY=0.25;entryDx=0;entryDy=0;" edge="1" parent="1" source="7i4j4CuEcmihDpo4w7E3-9" target="7i4j4CuEcmihDpo4w7E3-6">
          <mxGeometry relative="1" as="geometry" />
        </mxCell>
        <mxCell id="7i4j4CuEcmihDpo4w7E3-9" value="Nombre_Empresa" style="ellipse;whiteSpace=wrap;html=1;" vertex="1" parent="1">
          <mxGeometry x="290" y="430" width="110" height="70" as="geometry" />
        </mxCell>
        <mxCell id="7i4j4CuEcmihDpo4w7E3-15" style="edgeStyle=orthogonalEdgeStyle;rounded=0;orthogonalLoop=1;jettySize=auto;html=1;exitX=1;exitY=0;exitDx=0;exitDy=0;entryX=0.25;entryY=1;entryDx=0;entryDy=0;" edge="1" parent="1" source="7i4j4CuEcmihDpo4w7E3-10" target="7i4j4CuEcmihDpo4w7E3-6">
          <mxGeometry relative="1" as="geometry" />
        </mxCell>
        <mxCell id="7i4j4CuEcmihDpo4w7E3-10" value="ID_Empresa" style="ellipse;whiteSpace=wrap;html=1;" vertex="1" parent="1">
          <mxGeometry x="425" y="490" width="100" height="70" as="geometry" />
        </mxCell>
        <mxCell id="7i4j4CuEcmihDpo4w7E3-16" style="edgeStyle=orthogonalEdgeStyle;rounded=0;orthogonalLoop=1;jettySize=auto;html=1;exitX=0;exitY=0;exitDx=0;exitDy=0;" edge="1" parent="1" source="7i4j4CuEcmihDpo4w7E3-11" target="7i4j4CuEcmihDpo4w7E3-6">
          <mxGeometry relative="1" as="geometry" />
        </mxCell>
        <mxCell id="7i4j4CuEcmihDpo4w7E3-11" value="ID_Proyecto" style="ellipse;whiteSpace=wrap;html=1;" vertex="1" parent="1">
          <mxGeometry x="570" y="440" width="100" height="70" as="geometry" />
        </mxCell>
        <mxCell id="7i4j4CuEcmihDpo4w7E3-20" style="edgeStyle=orthogonalEdgeStyle;rounded=0;orthogonalLoop=1;jettySize=auto;html=1;exitX=1;exitY=0.5;exitDx=0;exitDy=0;entryX=0;entryY=0.5;entryDx=0;entryDy=0;" edge="1" parent="1" source="7i4j4CuEcmihDpo4w7E3-17" target="7i4j4CuEcmihDpo4w7E3-21">
          <mxGeometry relative="1" as="geometry">
            <mxPoint x="960" y="350" as="targetPoint" />
          </mxGeometry>
        </mxCell>
        <mxCell id="7i4j4CuEcmihDpo4w7E3-17" value="Tiene" style="rhombus;whiteSpace=wrap;html=1;" vertex="1" parent="1">
          <mxGeometry x="720" y="310" width="110" height="60" as="geometry" />
        </mxCell>
        <mxCell id="7i4j4CuEcmihDpo4w7E3-19" style="edgeStyle=orthogonalEdgeStyle;rounded=0;orthogonalLoop=1;jettySize=auto;html=1;exitX=1;exitY=0.5;exitDx=0;exitDy=0;entryX=0.064;entryY=0.55;entryDx=0;entryDy=0;entryPerimeter=0;" edge="1" parent="1" source="7i4j4CuEcmihDpo4w7E3-6" target="7i4j4CuEcmihDpo4w7E3-17">
          <mxGeometry relative="1" as="geometry" />
        </mxCell>
        <mxCell id="7i4j4CuEcmihDpo4w7E3-35" style="edgeStyle=orthogonalEdgeStyle;rounded=0;orthogonalLoop=1;jettySize=auto;html=1;exitX=0.25;exitY=0;exitDx=0;exitDy=0;entryX=0.5;entryY=1;entryDx=0;entryDy=0;" edge="1" parent="1" source="7i4j4CuEcmihDpo4w7E3-21" target="7i4j4CuEcmihDpo4w7E3-33">
          <mxGeometry relative="1" as="geometry">
            <Array as="points">
              <mxPoint x="1130" y="180" />
              <mxPoint x="1170" y="180" />
              <mxPoint x="1170" y="150" />
            </Array>
          </mxGeometry>
        </mxCell>
        <mxCell id="7i4j4CuEcmihDpo4w7E3-36" style="edgeStyle=orthogonalEdgeStyle;rounded=0;orthogonalLoop=1;jettySize=auto;html=1;exitX=0.75;exitY=0;exitDx=0;exitDy=0;" edge="1" parent="1" source="7i4j4CuEcmihDpo4w7E3-21" target="7i4j4CuEcmihDpo4w7E3-29">
          <mxGeometry relative="1" as="geometry" />
        </mxCell>
        <mxCell id="7i4j4CuEcmihDpo4w7E3-37" style="edgeStyle=orthogonalEdgeStyle;rounded=0;orthogonalLoop=1;jettySize=auto;html=1;exitX=1;exitY=0.25;exitDx=0;exitDy=0;entryX=0;entryY=0.5;entryDx=0;entryDy=0;" edge="1" parent="1" source="7i4j4CuEcmihDpo4w7E3-21" target="7i4j4CuEcmihDpo4w7E3-30">
          <mxGeometry relative="1" as="geometry" />
        </mxCell>
        <mxCell id="7i4j4CuEcmihDpo4w7E3-38" style="edgeStyle=orthogonalEdgeStyle;rounded=0;orthogonalLoop=1;jettySize=auto;html=1;exitX=1;exitY=0.75;exitDx=0;exitDy=0;entryX=0;entryY=0.5;entryDx=0;entryDy=0;" edge="1" parent="1" source="7i4j4CuEcmihDpo4w7E3-21" target="7i4j4CuEcmihDpo4w7E3-31">
          <mxGeometry relative="1" as="geometry" />
        </mxCell>
        <mxCell id="7i4j4CuEcmihDpo4w7E3-39" style="edgeStyle=orthogonalEdgeStyle;rounded=0;orthogonalLoop=1;jettySize=auto;html=1;exitX=0.75;exitY=1;exitDx=0;exitDy=0;entryX=0;entryY=0;entryDx=0;entryDy=0;" edge="1" parent="1" source="7i4j4CuEcmihDpo4w7E3-21" target="7i4j4CuEcmihDpo4w7E3-32">
          <mxGeometry relative="1" as="geometry" />
        </mxCell>
        <mxCell id="7i4j4CuEcmihDpo4w7E3-55" style="edgeStyle=orthogonalEdgeStyle;rounded=0;orthogonalLoop=1;jettySize=auto;html=1;exitX=0.25;exitY=1;exitDx=0;exitDy=0;entryX=0.5;entryY=0;entryDx=0;entryDy=0;" edge="1" parent="1" source="7i4j4CuEcmihDpo4w7E3-21" target="7i4j4CuEcmihDpo4w7E3-41">
          <mxGeometry relative="1" as="geometry">
            <Array as="points">
              <mxPoint x="1110" y="270" />
              <mxPoint x="1110" y="385" />
              <mxPoint x="1015" y="385" />
            </Array>
          </mxGeometry>
        </mxCell>
        <mxCell id="7i4j4CuEcmihDpo4w7E3-21" value="Empleados" style="rounded=0;whiteSpace=wrap;html=1;" vertex="1" parent="1">
          <mxGeometry x="1100" y="210" width="120" height="60" as="geometry" />
        </mxCell>
        <mxCell id="7i4j4CuEcmihDpo4w7E3-26" style="edgeStyle=orthogonalEdgeStyle;rounded=0;orthogonalLoop=1;jettySize=auto;html=1;exitX=0.25;exitY=0;exitDx=0;exitDy=0;entryX=1;entryY=1;entryDx=0;entryDy=0;" edge="1" parent="1" source="7i4j4CuEcmihDpo4w7E3-22" target="7i4j4CuEcmihDpo4w7E3-24">
          <mxGeometry relative="1" as="geometry" />
        </mxCell>
        <mxCell id="7i4j4CuEcmihDpo4w7E3-27" style="edgeStyle=orthogonalEdgeStyle;rounded=0;orthogonalLoop=1;jettySize=auto;html=1;exitX=0.75;exitY=0;exitDx=0;exitDy=0;" edge="1" parent="1" source="7i4j4CuEcmihDpo4w7E3-22" target="7i4j4CuEcmihDpo4w7E3-25">
          <mxGeometry relative="1" as="geometry" />
        </mxCell>
        <mxCell id="7i4j4CuEcmihDpo4w7E3-22" value="Cargos" style="rounded=1;whiteSpace=wrap;html=1;" vertex="1" parent="1">
          <mxGeometry x="900" y="110" width="120" height="60" as="geometry" />
        </mxCell>
        <mxCell id="7i4j4CuEcmihDpo4w7E3-24" value="ID_Cargo" style="ellipse;whiteSpace=wrap;html=1;" vertex="1" parent="1">
          <mxGeometry x="820" y="10" width="100" height="70" as="geometry" />
        </mxCell>
        <mxCell id="7i4j4CuEcmihDpo4w7E3-25" value="Nombre_cargo" style="ellipse;whiteSpace=wrap;html=1;" vertex="1" parent="1">
          <mxGeometry x="1000" y="10" width="100" height="70" as="geometry" />
        </mxCell>
        <mxCell id="7i4j4CuEcmihDpo4w7E3-28" style="edgeStyle=orthogonalEdgeStyle;rounded=0;orthogonalLoop=1;jettySize=auto;html=1;exitX=1;exitY=0.75;exitDx=0;exitDy=0;entryX=0.058;entryY=0.033;entryDx=0;entryDy=0;entryPerimeter=0;" edge="1" parent="1" source="7i4j4CuEcmihDpo4w7E3-22" target="7i4j4CuEcmihDpo4w7E3-21">
          <mxGeometry relative="1" as="geometry" />
        </mxCell>
        <mxCell id="7i4j4CuEcmihDpo4w7E3-29" value="ID_Departamento" style="ellipse;whiteSpace=wrap;html=1;" vertex="1" parent="1">
          <mxGeometry x="1240" y="70" width="100" height="70" as="geometry" />
        </mxCell>
        <mxCell id="7i4j4CuEcmihDpo4w7E3-30" value="A_apellido" style="ellipse;whiteSpace=wrap;html=1;" vertex="1" parent="1">
          <mxGeometry x="1290" y="170" width="100" height="70" as="geometry" />
        </mxCell>
        <mxCell id="7i4j4CuEcmihDpo4w7E3-31" value="ID_Empleados" style="ellipse;whiteSpace=wrap;html=1;" vertex="1" parent="1">
          <mxGeometry x="1290" y="270" width="100" height="70" as="geometry" />
        </mxCell>
        <mxCell id="7i4j4CuEcmihDpo4w7E3-32" value="F_Fecha_Inicio" style="ellipse;whiteSpace=wrap;html=1;" vertex="1" parent="1">
          <mxGeometry x="1250" y="370" width="100" height="70" as="geometry" />
        </mxCell>
        <mxCell id="7i4j4CuEcmihDpo4w7E3-33" value="S_Salario" style="ellipse;whiteSpace=wrap;html=1;" vertex="1" parent="1">
          <mxGeometry x="1110" y="80" width="100" height="70" as="geometry" />
        </mxCell>
        <mxCell id="7i4j4CuEcmihDpo4w7E3-34" value="ID_Proyecto" style="ellipse;whiteSpace=wrap;html=1;" vertex="1" parent="1">
          <mxGeometry x="1110" y="370" width="100" height="70" as="geometry" />
        </mxCell>
        <mxCell id="7i4j4CuEcmihDpo4w7E3-40" style="edgeStyle=orthogonalEdgeStyle;rounded=0;orthogonalLoop=1;jettySize=auto;html=1;exitX=0.5;exitY=1;exitDx=0;exitDy=0;entryX=0.63;entryY=-0.043;entryDx=0;entryDy=0;entryPerimeter=0;" edge="1" parent="1" source="7i4j4CuEcmihDpo4w7E3-21" target="7i4j4CuEcmihDpo4w7E3-34">
          <mxGeometry relative="1" as="geometry" />
        </mxCell>
        <mxCell id="7i4j4CuEcmihDpo4w7E3-41" value="Pertenece" style="rhombus;whiteSpace=wrap;html=1;" vertex="1" parent="1">
          <mxGeometry x="960" y="500" width="110" height="60" as="geometry" />
        </mxCell>
        <mxCell id="7i4j4CuEcmihDpo4w7E3-46" style="edgeStyle=orthogonalEdgeStyle;rounded=0;orthogonalLoop=1;jettySize=auto;html=1;exitX=0.75;exitY=0;exitDx=0;exitDy=0;entryX=0;entryY=0.5;entryDx=0;entryDy=0;" edge="1" parent="1" source="7i4j4CuEcmihDpo4w7E3-43" target="7i4j4CuEcmihDpo4w7E3-44">
          <mxGeometry relative="1" as="geometry" />
        </mxCell>
        <mxCell id="7i4j4CuEcmihDpo4w7E3-47" style="edgeStyle=orthogonalEdgeStyle;rounded=0;orthogonalLoop=1;jettySize=auto;html=1;exitX=0.75;exitY=1;exitDx=0;exitDy=0;entryX=0.5;entryY=1;entryDx=0;entryDy=0;" edge="1" parent="1" source="7i4j4CuEcmihDpo4w7E3-43" target="7i4j4CuEcmihDpo4w7E3-45">
          <mxGeometry relative="1" as="geometry" />
        </mxCell>
        <mxCell id="7i4j4CuEcmihDpo4w7E3-48" style="edgeStyle=orthogonalEdgeStyle;rounded=0;orthogonalLoop=1;jettySize=auto;html=1;exitX=0;exitY=0.75;exitDx=0;exitDy=0;entryX=0.5;entryY=1;entryDx=0;entryDy=0;" edge="1" parent="1" source="7i4j4CuEcmihDpo4w7E3-43" target="7i4j4CuEcmihDpo4w7E3-41">
          <mxGeometry relative="1" as="geometry" />
        </mxCell>
        <mxCell id="7i4j4CuEcmihDpo4w7E3-43" value="Departamentos" style="rounded=0;whiteSpace=wrap;html=1;" vertex="1" parent="1">
          <mxGeometry x="1170" y="590" width="120" height="60" as="geometry" />
        </mxCell>
        <mxCell id="7i4j4CuEcmihDpo4w7E3-44" value="ID_Departamento" style="ellipse;whiteSpace=wrap;html=1;" vertex="1" parent="1">
          <mxGeometry x="1310" y="500" width="100" height="70" as="geometry" />
        </mxCell>
        <mxCell id="7i4j4CuEcmihDpo4w7E3-45" value="Nombre_Departamento" style="ellipse;whiteSpace=wrap;html=1;" vertex="1" parent="1">
          <mxGeometry x="1300" y="630" width="130" height="70" as="geometry" />
        </mxCell>
        <mxCell id="7i4j4CuEcmihDpo4w7E3-49" value="1" style="text;html=1;align=center;verticalAlign=middle;resizable=0;points=[];autosize=1;strokeColor=none;fillColor=none;" vertex="1" parent="1">
          <mxGeometry x="345" y="108" width="30" height="30" as="geometry" />
        </mxCell>
        <mxCell id="7i4j4CuEcmihDpo4w7E3-50" value="N" style="text;html=1;align=center;verticalAlign=middle;resizable=0;points=[];autosize=1;strokeColor=none;fillColor=none;" vertex="1" parent="1">
          <mxGeometry x="345" y="138" width="30" height="30" as="geometry" />
        </mxCell>
        <mxCell id="7i4j4CuEcmihDpo4w7E3-51" value="N" style="text;html=1;align=center;verticalAlign=middle;resizable=0;points=[];autosize=1;strokeColor=none;fillColor=none;" vertex="1" parent="1">
          <mxGeometry x="540" y="280" width="30" height="30" as="geometry" />
        </mxCell>
        <mxCell id="7i4j4CuEcmihDpo4w7E3-52" value="N" style="text;html=1;align=center;verticalAlign=middle;resizable=0;points=[];autosize=1;strokeColor=none;fillColor=none;" vertex="1" parent="1">
          <mxGeometry x="495" y="280" width="30" height="30" as="geometry" />
        </mxCell>
        <mxCell id="7i4j4CuEcmihDpo4w7E3-53" value="N" style="text;html=1;align=center;verticalAlign=middle;resizable=0;points=[];autosize=1;strokeColor=none;fillColor=none;" vertex="1" parent="1">
          <mxGeometry x="730" y="280" width="30" height="30" as="geometry" />
        </mxCell>
        <mxCell id="7i4j4CuEcmihDpo4w7E3-54" value="N" style="text;html=1;align=center;verticalAlign=middle;resizable=0;points=[];autosize=1;strokeColor=none;fillColor=none;" vertex="1" parent="1">
          <mxGeometry x="790" y="280" width="30" height="30" as="geometry" />
        </mxCell>
        <mxCell id="7i4j4CuEcmihDpo4w7E3-56" value="N" style="text;html=1;align=center;verticalAlign=middle;resizable=0;points=[];autosize=1;strokeColor=none;fillColor=none;" vertex="1" parent="1">
          <mxGeometry x="1070" y="210" width="30" height="30" as="geometry" />
        </mxCell>
        <mxCell id="7i4j4CuEcmihDpo4w7E3-57" value="N" style="text;html=1;align=center;verticalAlign=middle;resizable=0;points=[];autosize=1;strokeColor=none;fillColor=none;" vertex="1" parent="1">
          <mxGeometry x="1070" y="240" width="30" height="30" as="geometry" />
        </mxCell>
        <mxCell id="7i4j4CuEcmihDpo4w7E3-58" value="1" style="text;html=1;align=center;verticalAlign=middle;resizable=0;points=[];autosize=1;strokeColor=none;fillColor=none;" vertex="1" parent="1">
          <mxGeometry x="1075" y="178" width="30" height="30" as="geometry" />
        </mxCell>
        <mxCell id="7i4j4CuEcmihDpo4w7E3-59" value="N" style="text;html=1;align=center;verticalAlign=middle;resizable=0;points=[];autosize=1;strokeColor=none;fillColor=none;" vertex="1" parent="1">
          <mxGeometry x="1100" y="178" width="30" height="30" as="geometry" />
        </mxCell>
        <mxCell id="7i4j4CuEcmihDpo4w7E3-60" value="N" style="text;html=1;align=center;verticalAlign=middle;resizable=0;points=[];autosize=1;strokeColor=none;fillColor=none;" vertex="1" parent="1">
          <mxGeometry x="1105" y="270" width="30" height="30" as="geometry" />
        </mxCell>
        <mxCell id="7i4j4CuEcmihDpo4w7E3-61" value="1" style="text;html=1;align=center;verticalAlign=middle;resizable=0;points=[];autosize=1;strokeColor=none;fillColor=none;" vertex="1" parent="1">
          <mxGeometry x="1080" y="270" width="30" height="30" as="geometry" />
        </mxCell>
        <mxCell id="7i4j4CuEcmihDpo4w7E3-62" value="N" style="text;html=1;align=center;verticalAlign=middle;resizable=0;points=[];autosize=1;strokeColor=none;fillColor=none;" vertex="1" parent="1">
          <mxGeometry x="1020" y="480" width="30" height="30" as="geometry" />
        </mxCell>
        <mxCell id="7i4j4CuEcmihDpo4w7E3-63" value="1" style="text;html=1;align=center;verticalAlign=middle;resizable=0;points=[];autosize=1;strokeColor=none;fillColor=none;" vertex="1" parent="1">
          <mxGeometry x="975" y="478" width="30" height="30" as="geometry" />
        </mxCell>
        <mxCell id="7i4j4CuEcmihDpo4w7E3-64" value="1" style="text;html=1;align=center;verticalAlign=middle;resizable=0;points=[];autosize=1;strokeColor=none;fillColor=none;" vertex="1" parent="1">
          <mxGeometry x="1135" y="608" width="30" height="30" as="geometry" />
        </mxCell>
        <mxCell id="7i4j4CuEcmihDpo4w7E3-65" value="1" style="text;html=1;align=center;verticalAlign=middle;resizable=0;points=[];autosize=1;strokeColor=none;fillColor=none;" vertex="1" parent="1">
          <mxGeometry x="1135" y="638" width="30" height="30" as="geometry" />
        </mxCell>
      </root>
    </mxGraphModel>
  </diagram>
</mxfile>
